<?xml version="1.0" encoding="UTF-8" standalone="no"?>
<!DOCTYPE svg PUBLIC "-//W3C//DTD SVG 1.1//EN" "http://www.w3.org/Graphics/SVG/1.1/DTD/svg11.dtd">
<svg width="100%" height="100%" viewBox="0 0 256 211" version="1.1" xmlns="http://www.w3.org/2000/svg" xmlns:xlink="http://www.w3.org/1999/xlink" xml:space="preserve" xmlns:serif="http://www.serif.com/" style="fill-rule:evenodd;clip-rule:evenodd;stroke-linejoin:round;stroke-miterlimit:2;">
    <g id="Artboard1" transform="matrix(1,0,0,1,2.22045e-15,-23.11)">
        <rect x="-0" y="23.11" width="256" height="210.494" style="fill:none;"/>
        <clipPath id="_clip1">
            <rect x="-0" y="23.11" width="256" height="210.494"/>
        </clipPath>
        <g clip-path="url(#_clip1)">
            <g transform="matrix(2.84448,0,0,2.87837,1,-1.06017)">
                <path d="M28.303,81.565C62.265,81.565 80.841,53.427 80.841,29.027C80.841,28.228 80.841,27.432 80.787,26.64C84.401,24.026 87.52,20.79 89.999,17.082C86.629,18.575 83.054,19.555 79.393,19.987C83.248,17.679 86.133,14.05 87.511,9.774C83.886,11.925 79.921,13.441 75.786,14.256C68.793,6.82 57.096,6.461 49.66,13.454C44.864,17.964 42.83,24.684 44.318,31.097C29.473,30.352 15.64,23.34 6.264,11.804C1.363,20.241 3.866,31.035 11.981,36.453C9.042,36.366 6.168,35.573 3.6,34.142L3.6,34.376C3.602,43.166 9.798,50.736 18.414,52.477C15.696,53.218 12.843,53.327 10.076,52.794C12.495,60.316 19.427,65.469 27.327,65.617C20.788,70.756 12.711,73.545 4.395,73.537C2.926,73.534 1.459,73.445 0,73.27C8.444,78.689 18.27,81.563 28.303,81.55" style="fill:rgb(29,161,242);fill-rule:nonzero;"/>
            </g>
        </g>
    </g>
</svg>
