<svg xmlns="http://www.w3.org/2000/svg" width="100%" height="100%" viewBox="0 0 1920 134" fill-rule="evenodd" stroke-linejoin="round" stroke-miterlimit="2" xmlns:v="https://vecta.io/nano"><g transform="matrix(1 0 0 1.07249 0 -26.6123)"><clipPath id="A"><path d="M0 24.814h1920v124.16H0z"/></clipPath><g clip-path="url(#A)"><path d="M-265 257.109C-205.193 190.663-85.579 57.771-25.065 33.391 20.388 15.079 58.44 111.41 98.086 110.83s75.282-85.081 114.726-80.923 81.283 105.121 121.935 105.87 83.17-97.218 121.979-101.375 73.109 77.178 110.869 76.428 76.002-83.817 115.69-80.923 81.393 98.504 122.438 98.287 83.652-96.692 123.832-99.586 78.098 82.284 117.245 82.222 75.158-87.706 117.65-82.598 91.077 113.659 137.267 113.252c46.202-.407 94.41-110.587 139.894-115.697 45.496-5.108 91.43 82.496 133.047 85.043s78.344-75.732 116.653-69.761c38.321 5.971 73.285 107.648 113.248 105.59 39.951-2.058 82.248-136.348 126.492-117.94s107.386 158.396 138.957 228.39" fill="#932d2d"/></g></g></svg>